<svg width="278" height="299" viewBox="0 0 278 299" fill="none" xmlns="http://www.w3.org/2000/svg">
<path d="M0 31C0 13.8792 13.8792 0 31 0H247C264.121 0 278 13.8792 278 31V52.1396C278 69.2604 264.121 83.1395 247 83.1395H31C13.8792 83.1395 0 69.2604 0 52.1395V31Z" fill="white"/>
<path d="M0 31C0 13.8792 13.8792 0 31 0H247C264.121 0 278 13.8792 278 31V52.1396C278 69.2604 264.121 83.1395 247 83.1395H31C13.8792 83.1395 0 69.2604 0 52.1395V31Z" fill="white"/>
<path d="M0 142.86C0 125.74 13.8792 111.86 31 111.86H247C264.121 111.86 278 125.74 278 142.86V164C278 181.121 264.121 195 247 195H31C13.8792 195 0 181.121 0 164V142.86Z" fill="white"/>
<path d="M0 142.86C0 125.74 13.8792 111.86 31 111.86H247C264.121 111.86 278 125.74 278 142.86V164C278 181.121 264.121 195 247 195H31C13.8792 195 0 181.121 0 164V142.86Z" fill="white"/>
<path d="M0 246.86C0 229.74 13.8792 215.86 31 215.86H247C264.121 215.86 278 229.74 278 246.86V268C278 285.121 264.121 299 247 299H31C13.8792 299 0 285.121 0 268V246.86Z" fill="white"/>
<path d="M0 246.86C0 229.74 13.8792 215.86 31 215.86H247C264.121 215.86 278 229.74 278 246.86V268C278 285.121 264.121 299 247 299H31C13.8792 299 0 285.121 0 268V246.86Z" fill="#010559"/>
</svg>
