<svg width="44" height="44" viewBox="0 0 44 44" fill="none" xmlns="http://www.w3.org/2000/svg">
<path d="M22.4779 8.70376C22.3499 8.58137 22.1797 8.51306 22.0026 8.51306C21.8256 8.51306 21.6553 8.58137 21.5274 8.70376L5.7063 23.8176C5.63911 23.8819 5.58565 23.9591 5.54917 24.0446C5.51268 24.1301 5.49393 24.2222 5.49403 24.3152L5.49146 38.5C5.49146 39.2294 5.78119 39.9288 6.29691 40.4446C6.81264 40.9603 7.51211 41.25 8.24146 41.25H16.5001C16.8647 41.25 17.2145 41.1051 17.4723 40.8473C17.7302 40.5894 17.8751 40.2397 17.8751 39.875V28.1875C17.8751 28.0052 17.9475 27.8303 18.0764 27.7014C18.2053 27.5724 18.3802 27.5 18.5626 27.5H25.4376C25.6199 27.5 25.7948 27.5724 25.9237 27.7014C26.0526 27.8303 26.1251 28.0052 26.1251 28.1875V39.875C26.1251 40.2397 26.2699 40.5894 26.5278 40.8473C26.7856 41.1051 27.1354 41.25 27.5001 41.25H35.7552C36.4846 41.25 37.184 40.9603 37.6998 40.4446C38.2155 39.9288 38.5052 39.2294 38.5052 38.5V24.3152C38.5053 24.2222 38.4866 24.1301 38.4501 24.0446C38.4136 23.9591 38.3601 23.8819 38.2929 23.8176L22.4779 8.70376Z" fill="#D9D9D9"/>
<path d="M42.1876 20.9816L35.7595 14.832V5.5C35.7595 5.13533 35.6146 4.78559 35.3568 4.52773C35.0989 4.26987 34.7492 4.125 34.3845 4.125H30.2595C29.8948 4.125 29.5451 4.26987 29.2872 4.52773C29.0294 4.78559 28.8845 5.13533 28.8845 5.5V8.25L23.907 3.49078C23.4412 3.01984 22.7485 2.75 22 2.75C21.2541 2.75 20.5632 3.01984 20.0974 3.49164L1.81847 20.9799C1.28394 21.4955 1.21691 22.3438 1.70331 22.9023C1.82546 23.0433 1.97501 23.158 2.14288 23.2394C2.31075 23.3207 2.49342 23.3671 2.67977 23.3756C2.86612 23.3841 3.05226 23.3546 3.22685 23.2889C3.40144 23.2232 3.56084 23.1227 3.69535 22.9934L21.5274 5.95375C21.6553 5.83136 21.8256 5.76305 22.0026 5.76305C22.1797 5.76305 22.3499 5.83136 22.4778 5.95375L40.3116 22.9934C40.5743 23.2454 40.9262 23.3828 41.2901 23.3758C41.654 23.3687 42.0002 23.2176 42.2529 22.9556C42.7806 22.4091 42.7368 21.5067 42.1876 20.9816Z" fill="#D9D9D9"/>
</svg>
