<svg width="44" height="44" viewBox="0 0 44 44" fill="none" xmlns="http://www.w3.org/2000/svg">
<path d="M18.5625 14.4375C18.5625 13.8936 18.7238 13.3619 19.026 12.9097C19.3281 12.4574 19.7576 12.105 20.2601 11.8968C20.7626 11.6887 21.3156 11.6342 21.849 11.7403C22.3825 11.8464 22.8725 12.1084 23.2571 12.493C23.6416 12.8776 23.9036 13.3676 24.0097 13.901C24.1158 14.4344 24.0613 14.9874 23.8532 15.4899C23.645 15.9924 23.2926 16.4219 22.8403 16.724C22.3881 17.0262 21.8564 17.1875 21.3125 17.1875C20.5832 17.1875 19.8837 16.8978 19.368 16.382C18.8522 15.8663 18.5625 15.1668 18.5625 14.4375ZM40.5625 22C40.5625 25.6713 39.4738 29.2602 37.4342 32.3128C35.3945 35.3654 32.4954 37.7446 29.1036 39.1495C25.7117 40.5545 21.9794 40.9221 18.3786 40.2058C14.7779 39.4896 11.4704 37.7217 8.87434 35.1257C6.27833 32.5297 4.51042 29.2221 3.79418 25.6214C3.07794 22.0206 3.44554 18.2883 4.85049 14.8964C6.25545 11.5046 8.63465 8.60552 11.6872 6.56585C14.7398 4.52617 18.3287 3.4375 22 3.4375C26.9214 3.44296 31.6397 5.4004 35.1196 8.88036C38.5996 12.3603 40.557 17.0786 40.5625 22ZM36.4375 22C36.4375 19.1445 35.5908 16.3532 34.0044 13.979C32.4179 11.6047 30.1631 9.75423 27.525 8.66149C24.8869 7.56875 21.984 7.28284 19.1834 7.83991C16.3828 8.39699 13.8103 9.77202 11.7912 11.7911C9.77203 13.8103 8.397 16.3828 7.83992 19.1834C7.28285 21.984 7.56876 24.8869 8.6615 27.525C9.75424 30.1631 11.6047 32.4179 13.979 34.0043C16.3532 35.5908 19.1445 36.4375 22 36.4375C25.8278 36.4334 29.4977 34.911 32.2043 32.2043C34.911 29.4977 36.4334 25.8278 36.4375 22ZM24.0625 28.3044V22.6875C24.0625 21.7758 23.7003 20.9015 23.0557 20.2568C22.411 19.6122 21.5367 19.25 20.625 19.25C20.1379 19.2493 19.6663 19.421 19.2937 19.7346C18.9211 20.0483 18.6715 20.4837 18.5891 20.9638C18.5068 21.4439 18.597 21.9376 18.8438 22.3575C19.0906 22.7775 19.478 23.0965 19.9375 23.2581V28.875C19.9375 29.7867 20.2997 30.661 20.9443 31.3057C21.589 31.9503 22.4633 32.3125 23.375 32.3125C23.8621 32.3132 24.3337 32.1415 24.7063 31.8279C25.079 31.5142 25.3285 31.0788 25.4109 30.5987C25.4932 30.1186 25.403 29.6249 25.1562 29.205C24.9094 28.785 24.522 28.466 24.0625 28.3044Z" fill="#D9D9D9"/>
</svg>
