<svg width="278" height="195" viewBox="0 0 278 195" fill="none" xmlns="http://www.w3.org/2000/svg">
<path d="M0 30C0 13.4314 13.4315 0 30 0H248C264.569 0 278 13.4315 278 30V53.1396C278 69.7081 264.569 83.1395 248 83.1395H30C13.4315 83.1395 0 69.7081 0 53.1395V30Z" fill="white"/>
<path d="M0 30C0 13.4314 13.4315 0 30 0H248C264.569 0 278 13.4315 278 30V53.1396C278 69.7081 264.569 83.1395 248 83.1395H30C13.4315 83.1395 0 69.7081 0 53.1395V30Z" fill="white"/>
<path d="M0 141.86C0 125.292 13.4315 111.86 30 111.86H248C264.569 111.86 278 125.292 278 141.86V165C278 181.569 264.569 195 248 195H30C13.4315 195 0 181.569 0 165V141.86Z" fill="white"/>
<path d="M0 141.86C0 125.292 13.4315 111.86 30 111.86H248C264.569 111.86 278 125.292 278 141.86V165C278 181.569 264.569 195 248 195H30C13.4315 195 0 181.569 0 165V141.86Z" fill="white"/>
</svg>
